<svg width="64" height="46" viewBox="0 0 64 46" fill="none" xmlns="http://www.w3.org/2000/svg">
<path d="M59 0.5H5C3.80653 0.5 2.66193 0.974106 1.81802 1.81802C0.974106 2.66193 0.5 3.80653 0.5 5V41C0.5 42.1935 0.974106 43.3381 1.81802 44.182C2.66193 45.0259 3.80653 45.5 5 45.5H59C60.1935 45.5 61.3381 45.0259 62.182 44.182C63.0259 43.3381 63.5 42.1935 63.5 41V5C63.5 3.80653 63.0259 2.66193 62.182 1.81802C61.3381 0.974106 60.1935 0.5 59 0.5ZM59 14L32 27.5L5 14V5L32 18.5L59 5V14Z" fill="#42A5F5"/>
</svg>
