<svg width="87" height="87" viewBox="0 0 87 87" fill="none" xmlns="http://www.w3.org/2000/svg">
<path d="M86.9711 72.2181C87.3009 71.3269 49.4326 42.7334 49.4326 42.7334C44.6918 39.2349 42.1984 39.1799 37.5103 42.7334C37.5103 42.7334 -0.302805 71.3038 0.015459 72.1828L0.0078125 72.1892C0.0117207 72.1969 0.0180078 72.2021 0.0232754 72.2091C0.343961 73.0831 0.810428 73.8965 1.40287 74.6147C1.65317 74.9182 1.95478 75.1724 2.24483 75.4366L2.23073 75.4475C2.25384 75.468 2.2846 75.4776 2.30771 75.4981C3.53709 76.5948 5.08746 77.3051 6.80978 77.5078C6.8368 77.511 6.85855 77.5251 6.88557 77.5283H6.98956C7.25141 77.5533 7.50035 77.6162 7.76848 77.6162H79.2582C82.7785 77.6162 85.7609 75.4025 86.9456 72.2992C86.9597 72.2761 86.9815 72.2594 86.9944 72.2356L86.9711 72.2181Z" fill="#96A9B2"/>
<path d="M43.523 39.4518L0.207031 71.9389V25.9157C0.207031 21.4298 3.84285 17.7939 8.32879 17.7939H78.7172C83.2032 17.7939 86.839 21.4298 86.839 25.9157V71.9389L43.523 39.4518Z" fill="#B9C5C6"/>
<path d="M0.710938 23.0919L37.6936 52.1398C42.3613 55.5843 44.8164 55.6387 49.4323 52.1398L86.3568 23.1379C85.7162 21.9767 84.7572 21.0592 83.6603 20.3277L84.1682 19.9298C82.9287 18.8013 81.3441 18.0698 79.5853 17.8809L7.46108 17.8834C5.70715 18.0698 4.12008 18.8039 2.88305 19.9298L3.38721 20.3228C2.30311 21.0441 1.3529 21.9457 0.710938 23.0919Z" fill="#EDECE6"/>
<path d="M0.698551 23.1524C0.37383 24.03 37.6586 52.1827 37.6586 52.1827C42.3264 55.6272 44.7814 55.6816 49.3973 52.1827C49.3973 52.1827 86.6277 24.0528 86.3142 23.1872L86.3218 23.1809C86.3181 23.1733 86.3118 23.1684 86.3067 23.1614C85.9911 22.3008 85.5318 21.4999 84.9484 20.7929C84.702 20.494 84.405 20.2438 84.1195 19.9835L84.1334 19.9728C84.1106 19.9526 84.0804 19.9431 84.0576 19.9229C82.8471 18.8432 81.3207 18.1438 79.6251 17.9441C79.5985 17.9409 79.577 17.9271 79.5505 17.9239H79.4482C79.1904 17.8993 78.9452 17.8374 78.6811 17.8374H8.2927C4.82663 17.8374 1.89004 20.0172 0.723869 23.0725C0.709936 23.0953 0.688525 23.1118 0.675781 23.1351L0.698551 23.1524Z" fill="#DCE2E2"/>
<path d="M49.5139 26.2773H42.9494C42.6721 26.2773 42.406 26.3875 42.2099 26.5837C42.0138 26.7798 41.9036 27.0458 41.9036 27.3232V31.0142C41.9036 31.2916 42.0138 31.5576 42.2099 31.7538C42.406 31.9499 42.6721 32.0601 42.9494 32.0601H48.2875C48.5649 32.0601 48.8309 32.1703 49.0271 32.3664C49.2232 32.5626 49.3334 32.8286 49.3334 33.106V35.0798C49.3334 35.3572 49.2232 35.6232 49.0271 35.8193C48.8309 36.0155 48.5649 36.1257 48.2875 36.1257H42.9494C42.6721 36.1257 42.406 36.2359 42.2099 36.432C42.0138 36.6281 41.9036 36.8941 41.9036 37.1715V41.1779C41.9036 41.4553 42.0138 41.7214 42.2099 41.9175C42.406 42.1136 42.6721 42.2238 42.9494 42.2238H49.9699C50.2473 42.2238 50.5133 42.334 50.7095 42.5301C50.9056 42.7263 51.0158 42.9923 51.0158 43.2697V45.3837C51.0158 45.6611 50.9056 45.9271 50.7095 46.1232C50.5133 46.3194 50.2473 46.4296 49.9699 46.4296H37.0967C36.8193 46.4296 36.5532 46.3194 36.3571 46.1232C36.161 45.9271 36.0508 45.6611 36.0508 45.3837V23.1875C36.0508 22.9101 36.161 22.6441 36.3571 22.4479C36.5532 22.2518 36.8193 22.1416 37.0967 22.1416H49.8085C50.4455 22.1416 50.9346 22.7061 50.8437 23.3367L50.5492 25.3805C50.5133 25.6295 50.3889 25.8572 50.1987 26.0219C50.0086 26.1867 49.7654 26.2773 49.5139 26.2773Z" fill="#597B91"/>
</svg>
