<svg width="67" height="67" viewBox="0 0 67 67" fill="none" xmlns="http://www.w3.org/2000/svg">
<path d="M61.0581 2.52832H5.94539C4.05766 2.52832 2.52734 4.05863 2.52734 5.94637V61.0591C2.52734 62.9468 4.05766 64.4771 5.94539 64.4771H61.0581C62.9459 64.4771 64.4762 62.9468 64.4762 61.0591V5.94637C64.4762 4.05863 62.9459 2.52832 61.0581 2.52832Z" fill="#3D5A98"/>
<path d="M45.2666 64.472V40.4828H53.317L54.5209 31.1342H45.2666V25.1671C45.2666 22.4609 46.0203 20.6132 49.899 20.6132H54.8507V12.2382C52.4529 11.9887 50.0432 11.8699 47.6325 11.8822C40.5033 11.8822 35.5934 16.2267 35.5934 24.2406V31.1342H27.543V40.4828H35.5934V64.472H45.2666Z" fill="white"/>
</svg>
