<svg width="53" height="60" viewBox="0 0 53 60" fill="none" xmlns="http://www.w3.org/2000/svg">
<g clip-path="url(#clip0_1490_631)">
<path d="M39.2766 21.6044C43.1435 24.3654 47.8808 25.99 52.9972 25.99V16.1562C52.0288 16.1566 51.063 16.0556 50.1157 15.8549V23.5956C44.9997 23.5956 40.2631 21.9712 36.3953 19.2104V39.2785C36.3953 49.3178 28.2474 57.4554 18.1973 57.4554C14.4473 57.4554 10.9617 56.3231 8.06641 54.3809C11.371 57.756 15.9796 59.8496 21.0779 59.8496C31.1289 59.8496 39.277 51.712 39.277 41.6723V21.6044H39.2766ZM42.8313 11.6833C40.855 9.5268 39.5573 6.73991 39.2766 3.6588V2.39404H36.546C37.2334 6.30997 39.578 9.65549 42.8313 11.6833ZM14.4231 46.6774C13.3189 45.2315 12.722 43.4624 12.7248 41.6436C12.7248 37.0521 16.4516 33.3292 21.0495 33.3292C21.9063 33.3287 22.758 33.4601 23.5747 33.7188V23.6651C22.6203 23.5345 21.6572 23.4789 20.6945 23.4994V31.3246C19.8774 31.0659 19.0252 30.9346 18.1681 30.9352C13.5703 30.9352 9.84377 34.6577 9.84377 39.2498C9.84377 42.4968 11.7064 45.3079 14.4231 46.6774Z" fill="#FF004F"/>
<path d="M36.3983 19.2102C40.2662 21.971 45.0025 23.5954 50.1186 23.5954V15.8547C47.2629 15.2471 44.7348 13.7566 42.8341 11.6833C39.5806 9.65528 37.2363 6.30977 36.549 2.39404H29.3768V41.6719C29.3605 46.2509 25.6401 49.9585 21.0521 49.9585C18.3487 49.9585 15.9467 48.6714 14.4256 46.6771C11.7094 45.3079 9.84652 42.4966 9.84652 39.25C9.84652 34.6583 13.5731 30.9354 18.1708 30.9354C19.0517 30.9354 19.9008 31.0724 20.6972 31.3248V23.4996C10.8235 23.7034 2.88281 31.7616 2.88281 41.6721C2.88281 46.6194 4.86017 51.1043 8.06957 54.3813C10.9649 56.3231 14.4503 57.4558 18.2004 57.4558C28.2508 57.4558 36.3985 49.3176 36.3985 39.2785L36.3983 19.2102Z" fill="black"/>
<path d="M50.1171 15.8545V13.7619C47.5418 13.7657 45.0175 13.0453 42.8325 11.6832C44.7666 13.7982 47.3133 15.2566 50.1171 15.8549M36.5472 2.39379C36.4818 2.01964 36.4315 1.64298 36.3965 1.26476V0H26.4934V39.2783C26.4776 43.8569 22.7573 47.5645 18.1691 47.5645C16.8683 47.5664 15.5854 47.2626 14.4239 46.6775C15.9449 48.6714 18.3469 49.9583 21.0503 49.9583C25.6381 49.9583 29.3589 46.2511 29.375 41.6721V2.394L36.5472 2.39379ZM20.6961 23.4993V21.2712C19.8686 21.1583 19.0343 21.1018 18.1991 21.102C8.14772 21.102 0 29.2401 0 39.2783C0 45.5719 3.20215 51.1183 8.06822 54.3809C4.85882 51.1041 2.88146 46.619 2.88146 41.6719C2.88146 31.7615 10.8219 23.7031 20.6961 23.4993Z" fill="#00F2EA"/>
</g>
<defs>
<clipPath id="clip0_1490_631">
<rect width="53" height="60" fill="white"/>
</clipPath>
</defs>
</svg>
